<svg width="480" height="480" viewBox="0 0 480 480" fill="none" xmlns="http://www.w3.org/2000/svg">
  <!-- Lotus petals -->
  <g opacity="0.9">
    <!-- Outer petals -->
    <path d="M240 80 C 200 60, 160 80, 140 120 C 120 160, 140 200, 180 220 C 220 240, 260 240, 300 220 C 340 200, 360 160, 340 120 C 320 80, 280 60, 240 80 Z" fill="#f5cac3" stroke="#e8b4b8" stroke-width="2"/>
    
    <!-- Middle petals -->
    <path d="M240 120 C 210 105, 185 120, 170 150 C 155 180, 170 210, 200 225 C 230 240, 250 240, 280 225 C 310 210, 325 180, 310 150 C 295 120, 270 105, 240 120 Z" fill="#f5cac3" stroke="#e8b4b8" stroke-width="2"/>
    
    <!-- Inner petals -->
    <path d="M240 160 C 220 150, 205 160, 195 180 C 185 200, 200 220, 220 230 C 240 240, 240 240, 260 230 C 280 220, 295 200, 285 180 C 275 160, 260 150, 240 160 Z" fill="#f5cac3" stroke="#e8b4b8" stroke-width="2"/>
  </g>
  
  <!-- Center -->
  <circle cx="240" cy="200" r="25" fill="#84a59d" stroke="#6b7c93" stroke-width="2"/>
  
  <!-- Stamen -->
  <circle cx="240" cy="200" r="15" fill="#f6bd60" stroke="#e8a87c" stroke-width="1"/>
</svg>
